<svg xmlns="http://www.w3.org/2000/svg" xmlns:xlink="http://www.w3.org/1999/xlink" width="1540" height="1020"><g transform="translate(-140 -60)"><path d="M0 0h1760v1360H0z" fill="#fff"/><path d="M240 201v809" fill="none"/><path d="M240 201v10m0 9.98v19.97m0 10v19.96m0 10v19.98m0 9.98v19.98m0 10v19.96m0 10v19.97m0 9.98v19.98m0 10v19.96m0 9.98v19.97m0 10v19.97m0 9.98v19.98m0 10v19.96m0 10v19.97m0 10v19.97m0 10v19.96m0 10v19.97m0 9.98v19.98m0 10v19.96m0 10v19.96m0 10v19.97m0 9.98v19.98m0 10v19.97m0 10v19.97m0 9.98v19.98m0 10v19.96m0 10V990m0 10v9.98" stroke="#999" stroke-width="2" fill="none"/><path d="M241 201h-2v-1h2z" fill="#999"/><path d="M640 200v860" fill="none"/><path d="M640 200v9.9m0 9.87v19.77m0 9.9v19.76m0 9.88v19.77m0 9.9v19.76m0 9.9v19.76m0 9.9v19.76m0 9.88v19.77m0 9.9v19.76m0 9.88v19.78m0 9.9v19.76m0 9.88v19.77m0 9.88v19.77m0 9.88v19.77m0 9.9v19.76m0 9.88v19.77m0 9.9v19.77m0 9.88v19.77m0 9.9v19.76m0 9.88v19.77m0 9.9v19.76m0 9.87v19.77m0 9.9v19.76m0 9.88v19.77m0 9.9v19.76m0 9.9v19.76m0 9.9v19.76m0 9.88v19.77m0 9.9v19.76m0 9.88v9.9" stroke="#999" stroke-width="2" fill="none"/><path d="M1356 85c0-2.76 2.24-5 5-5h150c2.76 0 5 2.24 5 5v110c0 2.76-2.24 5-5 5h-150c-2.76 0-5-2.24-5-5z" stroke="#666" stroke-width="2" fill="#ff8f80"/><use xlink:href="#a" transform="matrix(1,0,0,1,1356,80) translate(4.543209876543202 51.72222222222222)"/><use xlink:href="#b" transform="matrix(1,0,0,1,1356,80) translate(34.96296296296296 73.05555555555556)"/><path d="M1436 200l4 850" fill="none"/><path d="M1436 200l.05 10.12m.05 10.12l.1 20.24m.04 10.12l.1 20.23m.04 10.12l.1 20.24m.04 10.1l.1 20.25m.05 10.12l.1 20.23m.04 10.12l.1 20.24m.05 10.12l.1 20.24m.05 10.12l.1 20.24m.04 10.12l.1 20.23m.04 10.12l.1 20.24m.04 10.1l.1 20.25m.05 10.12l.1 20.23m.04 10.12l.1 20.24m.05 10.12l.1 20.24m.05 10.12l.1 20.24m.04 10.12l.1 20.23m.04 10.12l.1 20.24m.04 10.1l.1 20.25m.05 10.12l.1 20.23m.04 10.12l.1 20.24m.05 10.12l.1 20.24m.05 10.12l.1 20.24m.04 10.12l.1 20.23m.04 10.12l.1 20.24m.04 10.1l.1 20.25m.05 10.12l.1 20.23m.04 10.12l.1 20.24m.05 10.12l.05 10.12" stroke="#999" stroke-width="2" fill="none"/><path d="M1435 200h1z" fill="#999"/><path d="M928 85c0-2.76 2.24-5 5-5h210c2.76 0 5 2.24 5 5v110c0 2.76-2.24 5-5 5H933c-2.76 0-5-2.24-5-5z" stroke="#666" stroke-width="2" fill="#a3d977"/><use xlink:href="#c" transform="matrix(1,0,0,1,928,80) translate(34.5432098765432 51.72222222222222)"/><use xlink:href="#d" transform="matrix(1,0,0,1,928,80) translate(48.44444444444444 73.05555555555556)"/><path d="M560 85c0-2.76 2.24-5 5-5h150c2.76 0 5 2.24 5 5v110c0 2.76-2.24 5-5 5H565c-2.76 0-5-2.24-5-5z" stroke="#666" stroke-width="2" fill="#ffdf71"/><use xlink:href="#e" transform="matrix(1,0,0,1,560,80) translate(40.51851851851851 51.72222222222222)"/><use xlink:href="#f" transform="matrix(1,0,0,1,560,80) translate(34.197530864197525 73.05555555555556)"/><path d="M1038 200v424c0 .55.45 1 1 1s1 .45 1 1v424" fill="none"/><path d="M1038 200v10.1m0 10.1v20.18m0 10.1v20.2m0 10.08v20.2m0 10.1v20.18m0 10.1v20.18m0 10.1v20.2m0 10.08v20.2m0 10.1v20.18m0 10.1v20.2m0 10.08v20.2m0 10.1v20.18m0 10.1v20.18m0 10.1v20.2m0 10.08V624l.3.7.7.3.7.3.3.7v10.1m0 10.1v20.18m0 10.1v20.2m0 10.08v20.2m0 10.1v20.18m0 10.1v20.18m0 10.1v20.2m0 10.08v20.2m0 10.1v20.18m0 10.1v20.2m0 10.08v20.2m0 10.1v20.18m0 10.1v20.18m0 10.1v20.2m0 10.08v10.1" stroke="#999" stroke-width="2" fill="none"/><path d="M160 85c0-2.76 2.24-5 5-5h150c2.76 0 5 2.24 5 5v110c0 2.76-2.24 5-5 5H165c-2.76 0-5-2.24-5-5z" stroke="#666" stroke-width="2" fill="#83bbe5"/><use xlink:href="#g" transform="matrix(1,0,0,1,160,80) translate(48.96296296296296 62.97222222222222)"/><path d="M220 325c0-2.76 2.24-5 5-5h30c2.76 0 5 2.24 5 5v150c0 2.76-2.24 5-5 5h-30c-2.76 0-5-2.24-5-5z" stroke="#666" stroke-width="2" fill="#f2f2f2"/><path d="M224.73 460.68c-2.76 0-5-2.24-5-5V345c0-2.76 2.24-5 5-5h33.2c2.76 0 5 2.24 5 5v110.68c0 2.76-2.24 5-5 5z" fill="none"/><use xlink:href="#h" transform="matrix(6.123233995736766e-17,-1,1,6.123233995736766e-17,219.7333333333332,460.6772328842792) translate(11.074999999999996 14.799999999999999)"/><use xlink:href="#i" transform="matrix(6.123233995736766e-17,-1,1,6.123233995736766e-17,219.7333333333332,460.6772328842792) translate(76.975 14.799999999999999)"/><use xlink:href="#j" transform="matrix(6.123233995736766e-17,-1,1,6.123233995736766e-17,219.7333333333332,460.6772328842792) translate(43 36.4)"/><path d="M209 265c0-2.76 2.24-5 5-5h1261c2.76 0 5 2.24 5 5v30c0 2.76-2.24 5-5 5H214c-2.76 0-5-2.24-5-5z" stroke="#666" stroke-width="2" fill="#e5e5e5"/><use xlink:href="#k" transform="matrix(1,0,0,1,209,260) translate(613.53 24.4)"/><path d="M620 427c0-2.76 2.24-5 5-5h30c2.76 0 5 2.24 5 5v188c0 2.76-2.24 5-5 5h-30c-2.76 0-5-2.24-5-5z" stroke="#666" stroke-width="2" fill="#f2f2f2"/><path d="M262.93 441.98H619" stroke="#666" stroke-width="2" fill="none"/><path d="M619 441.98l-14.27 4.63v-9.26z" fill="#666"/><path d="M620 441.25v1.45l-16.27 5.3v-12.04zm-14.27 4l10.03-3.27-10.03-3.26z" fill="#666"/><path d="M614.07 624c-2.76 0-5-2.23-5-5V427c0-2.76 2.24-5 5-5h51.86c2.76 0 5 2.24 5 5v192c0 2.77-2.24 5-5 5z" fill="none"/><use xlink:href="#l" transform="matrix(6.123233995736766e-17,-1,1,6.123233995736766e-17,609.0666666666667,624.0105662176124) translate(25.57499999999999 23.799999999999997)"/><use xlink:href="#m" transform="matrix(6.123233995736766e-17,-1,1,6.123233995736766e-17,609.0666666666667,624.0105662176124) translate(91.52499999999999 23.799999999999997)"/><use xlink:href="#n" transform="matrix(6.123233995736766e-17,-1,1,6.123233995736766e-17,609.0666666666667,624.0105662176124) translate(35.57499999999999 45.4)"/><use xlink:href="#o" transform="matrix(6.123233995736766e-17,-1,1,6.123233995736766e-17,609.0666666666667,624.0105662176124) translate(72.475 45.4)"/><path d="M1018 566c0-2.76 2.24-5 5-5h30c2.76 0 5 2.24 5 5v329c0 2.76-2.24 5-5 5h-30c-2.76 0-5-2.24-5-5z" stroke="#666" stroke-width="2" fill="#f2f2f2"/><path d="M295.53 385c0-2.76 2.24-5 5-5h270c2.76 0 5 2.24 5 5v54.8c0 2.76-2.24 5-5 5h-270c-2.76 0-5-2.24-5-5z" fill="none"/><use xlink:href="#p" transform="matrix(1,0,0,1,295.53333333333325,380) translate(65.1 14.500000000000002)"/><use xlink:href="#q" transform="matrix(1,0,0,1,295.53333333333325,380) translate(65.175 36.1)"/><use xlink:href="#r" transform="matrix(1,0,0,1,295.53333333333325,380) translate(95.07499999999999 36.1)"/><use xlink:href="#s" transform="matrix(1,0,0,1,295.53333333333325,380) translate(28.25 57.7)"/><use xlink:href="#t" transform="matrix(1,0,0,1,295.53333333333325,380) translate(162 57.7)"/><path d="M661 580h357" stroke="#666" stroke-width="2" fill="none"/><path d="M661 581h-1v-2h1zM1018 580l-14.27 4.64v-9.28z" fill="#666"/><path d="M1018 578.95v2.1l-15.27 4.96v-12zm-13.27 4.3l10.03-3.25-10.03-3.26z" fill="#666"/><use xlink:href="#u" transform="matrix(1,0,0,1,839.5,571) translate(0.005 14.4)"/><path d="M704.47 525c0-2.76 2.24-5 5-5h270c2.76 0 5 2.24 5 5v54.8c0 2.76-2.24 5-5 5h-270c-2.76 0-5-2.24-5-5z" fill="none"/><use xlink:href="#p" transform="matrix(1,0,0,1,704.4666666666666,520) translate(65.1 25.299999999999997)"/><use xlink:href="#v" transform="matrix(1,0,0,1,704.4666666666666,520) translate(38.22500000000001 46.9)"/><path d="M1416 685c0-2.76 2.24-5 5-5h30c2.76 0 5 2.24 5 5v210c0 2.76-2.24 5-5 5h-30c-2.76 0-5-2.24-5-5z" stroke="#666" stroke-width="2" fill="#f2f2f2"/><path d="M1059 758h357" stroke="#666" stroke-width="2" fill="none"/><path d="M1073.27 762.64L1059 758l14.27-4.64z" fill="#666"/><path d="M1074.27 764l-16.27-5.27v-1.46l16.27-5.28zm-12.03-6l10.03 3.26v-6.52zM1416 758l-14.27 4.64v-9.28z" fill="#666"/><path d="M1416 756.95v2.1l-15.27 4.96v-12zm-13.27 4.3l10.03-3.25-10.03-3.26z" fill="#666"/><use xlink:href="#w" transform="matrix(1,0,0,1,1205.575,732.4) translate(0.004999999999999005 14.4)"/><use xlink:href="#x" transform="matrix(1,0,0,1,1205.575,732.4) translate(49.905 14.4)"/><path d="M1012.07 722c-2.76 0-5-2.23-5-5V525c0-2.76 2.24-5 5-5h51.86c2.76 0 5 2.24 5 5v192c0 2.77-2.24 5-5 5z" fill="none"/><use xlink:href="#w" transform="matrix(6.123233995736766e-17,-1,1,6.123233995736766e-17,1007.0666666666668,722.0105662176124) translate(57.6 34.6)"/><use xlink:href="#y" transform="matrix(6.123233995736766e-17,-1,1,6.123233995736766e-17,1007.0666666666668,722.0105662176124) translate(107.5 34.6)"/><path d="M1059 800.67h357" stroke="#666" stroke-width="2" fill="none"/><path d="M1073.27 805.3l-14.27-4.63 14.27-4.64z" fill="#666"/><path d="M1074.27 806.68l-16.27-5.3v-1.44l16.27-5.3zm-12.03-6l10.03 3.25v-6.52zM1416 800.67l-14.27 4.63v-9.27z" fill="#666"/><path d="M1416 799.62v2.1l-15.27 4.96v-12.03zm-13.27 4.3l10.03-3.25-10.03-3.26z" fill="#666"/><use xlink:href="#w" transform="matrix(1,0,0,1,1154.65,775.0666666666666) translate(0.0049999999999954525 14.4)"/><use xlink:href="#z" transform="matrix(1,0,0,1,1154.65,775.0666666666666) translate(49.904999999999994 14.4)"/><use xlink:href="#A" transform="matrix(1,0,0,1,1154.65,775.0666666666666) translate(78.85499999999999 14.4)"/><path d="M1059 850h357" stroke="#666" stroke-width="2" fill="none"/><path d="M1059 851h-1v-2h1zM1416 850l-14.27 4.64v-9.28z" fill="#666"/><path d="M1416 848.95v2.1l-15.27 4.96v-12zm-13.27 4.3l10.03-3.25-10.03-3.26z" fill="#666"/><use xlink:href="#B" transform="matrix(1,0,0,1,1162.6,824.4) translate(0.0049999999999954525 14.4)"/><use xlink:href="#A" transform="matrix(1,0,0,1,1162.6,824.4) translate(62.955 14.4)"/><path d="M1100 680H980" fill="none"/><path d="M1100 680h-10m-10 0h-20m-10 0h-20m-10 0h-20m-10 0h-10" stroke="#ccc" stroke-width="2" fill="none"/><path d="M620 825c0-2.76 2.24-5 5-5h30c2.76 0 5 2.24 5 5v130c0 2.76-2.24 5-5 5h-30c-2.76 0-5-2.24-5-5z" stroke="#666" stroke-width="2" fill="#f2f2f2"/><path d="M660 860.67h357" stroke="#666" stroke-width="2" fill="none"/><path d="M674.27 865.3L660 860.67l14.27-4.64z" fill="#666"/><path d="M675.27 866.68L660 861.72v-2.1l15.27-4.97zm-12.03-6l10.03 3.25v-6.52zM1018 861.67h-1v-2h1z" fill="#666"/><use xlink:href="#C" transform="matrix(1,0,0,1,750.425,835.0666666666666) translate(0.0049999999999954525 14.4)"/><use xlink:href="#D" transform="matrix(1,0,0,1,750.425,835.0666666666666) translate(58.905 14.4)"/><use xlink:href="#E" transform="matrix(1,0,0,1,750.425,835.0666666666666) translate(128.905 14.4)"/><path d="M614 973.67c-2.76 0-5-2.24-5-5V811.33c0-2.76 2.24-5 5-5h51.87c2.76 0 5 2.24 5 5v157.34c0 2.76-2.24 5-5 5z" fill="none"/><use xlink:href="#w" transform="matrix(6.123233995736766e-17,-1,1,6.123233995736766e-17,609,973.6719497754729) translate(35.425 34.6)"/><use xlink:href="#E" transform="matrix(6.123233995736766e-17,-1,1,6.123233995736766e-17,609,973.6719497754729) translate(85.32499999999999 34.6)"/><path d="M220 905c0-2.76 2.24-5 5-5h30c2.76 0 5 2.24 5 5v150c0 2.76-2.24 5-5 5h-30c-2.76 0-5-2.24-5-5z" stroke="#666" stroke-width="2" fill="#f2f2f2"/><g><path d="M214.07 1054.34c-2.76 0-5-2.24-5-5V910.66c0-2.76 2.24-5 5-5h51.86c2.76 0 5 2.24 5 5v138.68c0 2.76-2.24 5-5 5z" fill="none"/></g><g><use xlink:href="#F" transform="matrix(6.123233995736766e-17,-1,1,6.123233995736766e-17,209.0666666666666,1054.3386164421397) translate(13.574999999999996 34.6)"/><use xlink:href="#G" transform="matrix(6.123233995736766e-17,-1,1,6.123233995736766e-17,209.0666666666666,1054.3386164421397) translate(56.475 34.6)"/></g><path d="M261 930h358" stroke="#666" stroke-width="2" fill="none"/><path d="M275.27 934.64L261 930l14.27-4.64z" fill="#666"/><path d="M276.27 936L260 930.74v-1.46l16.27-5.28zm-12.03-6l10.03 3.26v-6.52zM620 931h-1v-2h1z" fill="#666"/><g><use xlink:href="#C" transform="matrix(1,0,0,1,339.6,904.3999999999999) translate(0.0049999999999954525 14.4)"/><use xlink:href="#H" transform="matrix(1,0,0,1,339.6,904.3999999999999) translate(58.905 14.4)"/><use xlink:href="#I" transform="matrix(1,0,0,1,339.6,904.3999999999999) translate(107.905 14.4)"/></g><path d="M320 456c0-2.77 2.24-5 5-5h196.2c2.76 0 6.58 1.58 8.53 3.53l26.73 26.73c1.96 1.95 3.54 5.77 3.54 8.54V615c0 2.76-2.24 5-5 5H325c-2.76 0-5-2.24-5-5z" stroke="#666" stroke-width="2" fill="#e5e5e5"/><path d="M527.4 455.85c-.66-2.68.38-3.27 2.33-1.32l26.73 26.73c1.96 1.95 1.37 3-1.3 2.32l-17.35-4.33c-2.67-.67-5.38-3.4-6.05-6.07z" stroke="#666" stroke-width="2" fill="#a0a0a0"/><g><use xlink:href="#J" transform="matrix(1,0,0,1,320,450.9947168911938) translate(13.104999999999999 35.65)"/><use xlink:href="#K" transform="matrix(1,0,0,1,320,450.9947168911938) translate(28.104999999999997 35.65)"/><use xlink:href="#L" transform="matrix(1,0,0,1,320,450.9947168911938) translate(58.105 35.65)"/><use xlink:href="#M" transform="matrix(1,0,0,1,320,450.9947168911938) translate(119.005 35.65)"/><use xlink:href="#N" transform="matrix(1,0,0,1,320,450.9947168911938) translate(158.955 35.65)"/><use xlink:href="#O" transform="matrix(1,0,0,1,320,450.9947168911938) translate(176.905 35.65)"/><use xlink:href="#P" transform="matrix(1,0,0,1,320,450.9947168911938) translate(31.57999999999999 57.25)"/><use xlink:href="#Q" transform="matrix(1,0,0,1,320,450.9947168911938) translate(85.47999999999999 57.25)"/><use xlink:href="#R" transform="matrix(1,0,0,1,320,450.9947168911938) translate(110.47999999999999 57.25)"/><use xlink:href="#S" transform="matrix(1,0,0,1,320,450.9947168911938) translate(149.43 57.25)"/><use xlink:href="#T" transform="matrix(1,0,0,1,320,450.9947168911938) translate(16.62999999999999 78.85000000000001)"/><use xlink:href="#U" transform="matrix(1,0,0,1,320,450.9947168911938) translate(82.58 78.85000000000001)"/><use xlink:href="#V" transform="matrix(1,0,0,1,320,450.9947168911938) translate(131.53 78.85000000000001)"/><use xlink:href="#W" transform="matrix(1,0,0,1,320,450.9947168911938) translate(11.554999999999987 100.45000000000002)"/><use xlink:href="#Q" transform="matrix(1,0,0,1,320,450.9947168911938) translate(57.50499999999999 100.45000000000002)"/><use xlink:href="#X" transform="matrix(1,0,0,1,320,450.9947168911938) translate(82.505 100.45000000000002)"/><use xlink:href="#Y" transform="matrix(1,0,0,1,320,450.9947168911938) translate(120.455 100.45000000000002)"/><use xlink:href="#Z" transform="matrix(1,0,0,1,320,450.9947168911938) translate(154.455 100.45000000000002)"/><use xlink:href="#aa" transform="matrix(1,0,0,1,320,450.9947168911938) translate(174.455 100.45000000000002)"/><use xlink:href="#ab" transform="matrix(1,0,0,1,320,450.9947168911938) translate(203.455 100.45000000000002)"/><use xlink:href="#ac" transform="matrix(1,0,0,1,320,450.9947168911938) translate(15.15500000000001 122.05000000000001)"/><use xlink:href="#ad" transform="matrix(1,0,0,1,320,450.9947168911938) translate(143.905 122.05000000000001)"/><use xlink:href="#ae" transform="matrix(1,0,0,1,320,450.9947168911938) translate(178.905 122.05000000000001)"/><use xlink:href="#af" transform="matrix(1,0,0,1,320,450.9947168911938) translate(199.855 122.05000000000001)"/><use xlink:href="#ag" transform="matrix(1,0,0,1,320,450.9947168911938) translate(75.605 143.65)"/></g><path d="M1059 718h357" stroke="#666" stroke-width="2" fill="none"/><path d="M1073.27 722.64L1059 718l14.27-4.64z" fill="#666"/><path d="M1074.27 724l-16.27-5.27v-1.46l16.27-5.28zm-12.03-6l10.03 3.26v-6.52zM1416 718l-14.27 4.64v-9.28z" fill="#666"/><path d="M1416 716.95v2.1l-15.27 4.96v-12zm-13.27 4.3l10.03-3.25-10.03-3.26z" fill="#666"/><g><use xlink:href="#ah" transform="matrix(1,0,0,1,1169.125,692.4) translate(0.0049999999999954525 14.4)"/><use xlink:href="#ai" transform="matrix(1,0,0,1,1169.125,692.4) translate(55.955 14.4)"/><use xlink:href="#N" transform="matrix(1,0,0,1,1169.125,692.4) translate(69.905 14.4)"/><use xlink:href="#aj" transform="matrix(1,0,0,1,1169.125,692.4) translate(87.855 14.4)"/></g><path d="M1480 710.5c0-2.76 2.24-5 5-5h143.1c2.76 0 6.58 1.58 8.54 3.53l19.82 19.83c1.96 1.95 3.54 5.78 3.54 8.54V835c0 2.76-2.24 5-5 5h-170c-2.76 0-5-2.24-5-5z" stroke="#666" stroke-width="2" fill="#e5e5e5"/><path d="M1634.3 710.35c-.66-2.68.38-3.27 2.34-1.32l19.82 19.83c1.96 1.95 1.37 3-1.3 2.33l-11.83-2.97c-2.68-.67-5.4-3.38-6.06-6.06z" stroke="#666" stroke-width="2" fill="#a0a0a0"/><g><use xlink:href="#ak" transform="matrix(1,0,0,1,1480,705.4973584455969) translate(17.604999999999997 27.05625)"/><use xlink:href="#al" transform="matrix(1,0,0,1,1480,705.4973584455969) translate(50.555 27.05625)"/><use xlink:href="#ad" transform="matrix(1,0,0,1,1480,705.4973584455969) translate(14.555000000000001 48.65625)"/><use xlink:href="#am" transform="matrix(1,0,0,1,1480,705.4973584455969) translate(49.555 48.65625)"/><use xlink:href="#X" transform="matrix(1,0,0,1,1480,705.4973584455969) translate(68.505 48.65625)"/><use xlink:href="#an" transform="matrix(1,0,0,1,1480,705.4973584455969) translate(106.455 48.65625)"/><use xlink:href="#ao" transform="matrix(1,0,0,1,1480,705.4973584455969) translate(150.45499999999998 48.65625)"/><use xlink:href="#ap" transform="matrix(1,0,0,1,1480,705.4973584455969) translate(26.604999999999997 70.25625000000001)"/><use xlink:href="#aq" transform="matrix(1,0,0,1,1480,705.4973584455969) translate(51.605 70.25625000000001)"/><use xlink:href="#ai" transform="matrix(1,0,0,1,1480,705.4973584455969) translate(114.455 70.25625000000001)"/><use xlink:href="#ab" transform="matrix(1,0,0,1,1480,705.4973584455969) translate(128.405 70.25625000000001)"/><use xlink:href="#L" transform="matrix(1,0,0,1,1480,705.4973584455969) translate(5.604999999999999 91.85625000000002)"/><use xlink:href="#M" transform="matrix(1,0,0,1,1480,705.4973584455969) translate(66.505 91.85625000000002)"/><use xlink:href="#N" transform="matrix(1,0,0,1,1480,705.4973584455969) translate(106.455 91.85625000000002)"/><use xlink:href="#ar" transform="matrix(1,0,0,1,1480,705.4973584455969) translate(124.405 91.85625000000002)"/><use xlink:href="#O" transform="matrix(1,0,0,1,1480,705.4973584455969) translate(154.405 91.85625000000002)"/><use xlink:href="#as" transform="matrix(1,0,0,1,1480,705.4973584455969) translate(63.055 113.45625000000001)"/></g><defs><path fill="#333" d="M199 0l-22-63H83L61 0H9l90-248h61L250 0h-51zm-33-102l-36-108c-10 38-24 72-36 108h72" id="at"/><path fill="#333" d="M238-95c0 69-44 99-111 99C63 4 22-25 22-93v-155h51v151c-1 38 19 59 55 60 90 1 49-130 58-211h52v153" id="au"/><path fill="#333" d="M136-208V0H84v-208H4v-40h212v40h-80" id="av"/><path fill="#333" d="M186 0v-106H76V0H24v-248h52v99h110v-99h50V0h-50" id="aw"/><path fill="#333" d="M24 0v-248h195v40H76v63h132v40H76v65h150V0H24" id="ax"/><path fill="#333" d="M175 0L67-191c6 58 2 128 3 191H24v-248h59L193-55c-6-58-2-129-3-193h46V0h-61" id="ay"/><path fill="#333" d="M24 0v-248h52V0H24" id="az"/><path fill="#333" d="M67-125c0 53 21 87 73 88 37 1 54-22 65-47l45 17C233-25 199 4 140 4 58 4 20-42 15-125 8-235 124-281 211-232c18 10 29 29 36 50l-46 12c-8-25-30-41-62-41-52 0-71 34-72 86" id="aA"/><path fill="#333" d="M140-251c80 0 125 45 125 126S219 4 139 4C58 4 15-44 15-125s44-126 125-126zm-1 214c52 0 73-35 73-88 0-50-21-86-72-86-52 0-73 35-73 86s22 88 72 88" id="aB"/><g id="a"><use transform="matrix(0.04938271604938272,0,0,0.04938271604938272,0,0)" xlink:href="#at"/><use transform="matrix(0.04938271604938272,0,0,0.04938271604938272,12.790123456790125,0)" xlink:href="#au"/><use transform="matrix(0.04938271604938272,0,0,0.04938271604938272,25.58024691358025,0)" xlink:href="#av"/><use transform="matrix(0.04938271604938272,0,0,0.04938271604938272,36.39506172839506,0)" xlink:href="#aw"/><use transform="matrix(0.04938271604938272,0,0,0.04938271604938272,49.18518518518519,0)" xlink:href="#ax"/><use transform="matrix(0.04938271604938272,0,0,0.04938271604938272,61.037037037037045,0)" xlink:href="#ay"/><use transform="matrix(0.04938271604938272,0,0,0.04938271604938272,73.82716049382717,0)" xlink:href="#av"/><use transform="matrix(0.04938271604938272,0,0,0.04938271604938272,84.64197530864197,0)" xlink:href="#az"/><use transform="matrix(0.04938271604938272,0,0,0.04938271604938272,89.58024691358025,0)" xlink:href="#aA"/><use transform="matrix(0.04938271604938272,0,0,0.04938271604938272,102.37037037037038,0)" xlink:href="#at"/><use transform="matrix(0.04938271604938272,0,0,0.04938271604938272,113.82716049382717,0)" xlink:href="#av"/><use transform="matrix(0.04938271604938272,0,0,0.04938271604938272,124.2962962962963,0)" xlink:href="#aB"/><use transform="matrix(0.04938271604938272,0,0,0.04938271604938272,138.12345679012347,0)" xlink:href="#ay"/></g><path fill="#333" d="M240-174c0 40-23 61-54 70L253 0h-59l-57-94H76V0H24v-248c93 4 217-23 216 74zM76-134c48-2 112 12 112-38 0-48-66-32-112-35v73" id="aC"/><path fill="#333" d="M67-125c0 54 23 88 75 88 28 0 53-7 68-21v-34h-60v-39h108v91C232-14 192 4 140 4 58 4 20-42 15-125 8-236 126-280 215-234c19 10 29 26 37 47l-47 15c-11-23-29-39-63-39-53 1-75 33-75 86" id="aD"/><path fill="#333" d="M169-182c-1-43-94-46-97-3 18 66 151 10 154 114 3 95-165 93-204 36-6-8-10-19-12-30l50-8c3 46 112 56 116 5-17-69-150-10-154-114-4-87 153-88 188-35 5 8 8 18 10 28" id="aE"/><path fill="#333" d="M146-102V0H94v-102L6-248h54l60 105 60-105h54" id="aF"/><g id="b"><use transform="matrix(0.04938271604938272,0,0,0.04938271604938272,0,0)" xlink:href="#aC"/><use transform="matrix(0.04938271604938272,0,0,0.04938271604938272,12.790123456790125,0)" xlink:href="#ax"/><use transform="matrix(0.04938271604938272,0,0,0.04938271604938272,24.641975308641978,0)" xlink:href="#aD"/><use transform="matrix(0.04938271604938272,0,0,0.04938271604938272,38.46913580246914,0)" xlink:href="#az"/><use transform="matrix(0.04938271604938272,0,0,0.04938271604938272,43.40740740740741,0)" xlink:href="#aE"/><use transform="matrix(0.04938271604938272,0,0,0.04938271604938272,55.25925925925927,0)" xlink:href="#av"/><use transform="matrix(0.04938271604938272,0,0,0.04938271604938272,66.07407407407408,0)" xlink:href="#aC"/><use transform="matrix(0.04938271604938272,0,0,0.04938271604938272,78.22222222222223,0)" xlink:href="#aF"/></g><g id="c"><use transform="matrix(0.04938271604938272,0,0,0.04938271604938272,0,0)" xlink:href="#at"/><use transform="matrix(0.04938271604938272,0,0,0.04938271604938272,12.790123456790125,0)" xlink:href="#au"/><use transform="matrix(0.04938271604938272,0,0,0.04938271604938272,25.58024691358025,0)" xlink:href="#av"/><use transform="matrix(0.04938271604938272,0,0,0.04938271604938272,36.39506172839506,0)" xlink:href="#aw"/><use transform="matrix(0.04938271604938272,0,0,0.04938271604938272,49.18518518518519,0)" xlink:href="#ax"/><use transform="matrix(0.04938271604938272,0,0,0.04938271604938272,61.037037037037045,0)" xlink:href="#ay"/><use transform="matrix(0.04938271604938272,0,0,0.04938271604938272,73.82716049382717,0)" xlink:href="#av"/><use transform="matrix(0.04938271604938272,0,0,0.04938271604938272,84.64197530864197,0)" xlink:href="#az"/><use transform="matrix(0.04938271604938272,0,0,0.04938271604938272,89.58024691358025,0)" xlink:href="#aA"/><use transform="matrix(0.04938271604938272,0,0,0.04938271604938272,102.37037037037038,0)" xlink:href="#at"/><use transform="matrix(0.04938271604938272,0,0,0.04938271604938272,113.82716049382717,0)" xlink:href="#av"/><use transform="matrix(0.04938271604938272,0,0,0.04938271604938272,124.2962962962963,0)" xlink:href="#aB"/><use transform="matrix(0.04938271604938272,0,0,0.04938271604938272,138.12345679012347,0)" xlink:href="#aC"/></g><path fill="#333" d="M24 0v-248h52v208h133V0H24" id="aG"/><g id="d"><use transform="matrix(0.04938271604938272,0,0,0.04938271604938272,0,0)" xlink:href="#aA"/><use transform="matrix(0.04938271604938272,0,0,0.04938271604938272,12.790123456790125,0)" xlink:href="#aB"/><use transform="matrix(0.04938271604938272,0,0,0.04938271604938272,26.617283950617285,0)" xlink:href="#ay"/><use transform="matrix(0.04938271604938272,0,0,0.04938271604938272,39.40740740740741,0)" xlink:href="#av"/><use transform="matrix(0.04938271604938272,0,0,0.04938271604938272,50.22222222222223,0)" xlink:href="#aC"/><use transform="matrix(0.04938271604938272,0,0,0.04938271604938272,63.01234567901235,0)" xlink:href="#aB"/><use transform="matrix(0.04938271604938272,0,0,0.04938271604938272,76.83950617283952,0)" xlink:href="#aG"/><use transform="matrix(0.04938271604938272,0,0,0.04938271604938272,87.65432098765433,0)" xlink:href="#aG"/><use transform="matrix(0.04938271604938272,0,0,0.04938271604938272,98.46913580246914,0)" xlink:href="#ax"/><use transform="matrix(0.04938271604938272,0,0,0.04938271604938272,110.320987654321,0)" xlink:href="#aC"/></g><g id="e"><use transform="matrix(0.04938271604938272,0,0,0.04938271604938272,0,0)" xlink:href="#aE"/><use transform="matrix(0.04938271604938272,0,0,0.04938271604938272,11.851851851851853,0)" xlink:href="#ax"/><use transform="matrix(0.04938271604938272,0,0,0.04938271604938272,23.703703703703706,0)" xlink:href="#aE"/><use transform="matrix(0.04938271604938272,0,0,0.04938271604938272,35.55555555555556,0)" xlink:href="#aE"/><use transform="matrix(0.04938271604938272,0,0,0.04938271604938272,47.40740740740741,0)" xlink:href="#az"/><use transform="matrix(0.04938271604938272,0,0,0.04938271604938272,52.345679012345684,0)" xlink:href="#aB"/><use transform="matrix(0.04938271604938272,0,0,0.04938271604938272,66.17283950617285,0)" xlink:href="#ay"/></g><path fill="#333" d="M230 0l2-204L168 0h-37L68-204 70 0H24v-248h70l56 185 57-185h69V0h-46" id="aH"/><g id="f"><use transform="matrix(0.04938271604938272,0,0,0.04938271604938272,0,0)" xlink:href="#aH"/><use transform="matrix(0.04938271604938272,0,0,0.04938271604938272,14.765432098765434,0)" xlink:href="#at"/><use transform="matrix(0.04938271604938272,0,0,0.04938271604938272,27.555555555555557,0)" xlink:href="#ay"/><use transform="matrix(0.04938271604938272,0,0,0.04938271604938272,40.345679012345684,0)" xlink:href="#at"/><use transform="matrix(0.04938271604938272,0,0,0.04938271604938272,53.135802469135804,0)" xlink:href="#aD"/><use transform="matrix(0.04938271604938272,0,0,0.04938271604938272,66.96296296296298,0)" xlink:href="#ax"/><use transform="matrix(0.04938271604938272,0,0,0.04938271604938272,78.81481481481482,0)" xlink:href="#aC"/></g><path fill="#333" d="M182-130c37 4 62 22 62 59C244 23 116-4 24 0v-248c84 5 203-23 205 63 0 31-19 50-47 55zM76-148c40-3 101 13 101-30 0-44-60-28-101-31v61zm0 110c48-3 116 14 116-37 0-48-69-32-116-35v72" id="aI"/><path fill="#333" d="M210 0H11v-37l134-170H24v-41h178v36L68-41h142V0" id="aJ"/><g id="g"><use transform="matrix(0.04938271604938272,0,0,0.04938271604938272,0,0)" xlink:href="#aI"/><use transform="matrix(0.04938271604938272,0,0,0.04938271604938272,12.790123456790125,0)" xlink:href="#aA"/><use transform="matrix(0.04938271604938272,0,0,0.04938271604938272,25.58024691358025,0)" xlink:href="#aB"/><use transform="matrix(0.04938271604938272,0,0,0.04938271604938272,39.40740740740741,0)" xlink:href="#aJ"/><use transform="matrix(0.04938271604938272,0,0,0.04938271604938272,50.22222222222223,0)" xlink:href="#aF"/></g><path fill="#333" d="M205 0l-28-72H64L36 0H1l101-248h38L239 0h-34zm-38-99l-47-123c-12 45-31 82-46 123h93" id="aK"/><path fill="#333" d="M96-169c-40 0-48 33-48 73s9 75 48 75c24 0 41-14 43-38l32 2c-6 37-31 61-74 61-59 0-76-41-82-99-10-93 101-131 147-64 4 7 5 14 7 22l-32 3c-4-21-16-35-41-35" id="aL"/><path fill="#333" d="M145-31C134-9 116 4 85 4 32 4 16-35 15-94c0-59 17-99 70-100 32-1 48 14 60 33 0-11-1-24 2-32h30l-1 268h-32zM93-21c41 0 51-33 51-76s-8-73-50-73c-40 0-46 35-46 75s5 74 45 74" id="aM"/><path fill="#333" d="M84 4C-5 8 30-112 23-190h32v120c0 31 7 50 39 49 72-2 45-101 50-169h31l1 190h-30c-1-10 1-25-2-33-11 22-28 36-60 37" id="aN"/><path fill="#333" d="M24-231v-30h32v30H24zM24 0v-190h32V0H24" id="aO"/><path fill="#333" d="M114-163C36-179 61-72 57 0H25l-1-190h30c1 12-1 29 2 39 6-27 23-49 58-41v29" id="aP"/><path fill="#333" d="M100-194c63 0 86 42 84 106H49c0 40 14 67 53 68 26 1 43-12 49-29l28 8c-11 28-37 45-77 45C44 4 14-33 15-96c1-61 26-98 85-98zm52 81c6-60-76-77-97-28-3 7-6 17-6 28h103" id="aQ"/><g id="h"><use transform="matrix(0.05,0,0,0.05,0,0)" xlink:href="#aK"/><use transform="matrix(0.05,0,0,0.05,12,0)" xlink:href="#aL"/><use transform="matrix(0.05,0,0,0.05,21,0)" xlink:href="#aM"/><use transform="matrix(0.05,0,0,0.05,31,0)" xlink:href="#aN"/><use transform="matrix(0.05,0,0,0.05,41,0)" xlink:href="#aO"/><use transform="matrix(0.05,0,0,0.05,44.95,0)" xlink:href="#aP"/><use transform="matrix(0.05,0,0,0.05,50.900000000000006,0)" xlink:href="#aQ"/></g><path fill="#333" d="M117-194c89-4 53 116 60 194h-32v-121c0-31-8-49-39-48C34-167 62-67 57 0H25l-1-190h30c1 10-1 24 2 32 11-22 29-35 61-36" id="aR"/><path fill="#333" d="M206 0h-36l-40-164L89 0H53L-1-190h32L70-26l43-164h34l41 164 42-164h31" id="aS"/><g id="i"><use transform="matrix(0.05,0,0,0.05,0,0)" xlink:href="#aR"/><use transform="matrix(0.05,0,0,0.05,10,0)" xlink:href="#aQ"/><use transform="matrix(0.05,0,0,0.05,20,0)" xlink:href="#aS"/></g><path fill="#333" d="M85-194c31 0 48 13 60 33l-1-100h32l1 261h-30c-2-10 0-23-3-31C134-8 116 4 85 4 32 4 16-35 15-94c0-66 23-100 70-100zm9 24c-40 0-46 34-46 75 0 40 6 74 45 74 42 0 51-32 51-76 0-42-9-74-50-73" id="aT"/><path fill="#333" d="M141-36C126-15 110 5 73 4 37 3 15-17 15-53c-1-64 63-63 125-63 3-35-9-54-41-54-24 1-41 7-42 31l-33-3c5-37 33-52 76-52 45 0 72 20 72 64v82c-1 20 7 32 28 27v20c-31 9-61-2-59-35zM48-53c0 20 12 33 32 33 41-3 63-29 60-74-43 2-92-5-92 41" id="aU"/><path fill="#333" d="M59-47c-2 24 18 29 38 22v24C64 9 27 4 27-40v-127H5v-23h24l9-43h21v43h35v23H59v120" id="aV"/><g id="j"><use transform="matrix(0.05,0,0,0.05,0,0)" xlink:href="#aT"/><use transform="matrix(0.05,0,0,0.05,10,0)" xlink:href="#aU"/><use transform="matrix(0.05,0,0,0.05,20,0)" xlink:href="#aV"/><use transform="matrix(0.05,0,0,0.05,25,0)" xlink:href="#aU"/></g><path fill="#333" d="M30 0v-248h33v221h125V0H30" id="aW"/><path fill="#333" d="M100-194c62-1 85 37 85 99 1 63-27 99-86 99S16-35 15-95c0-66 28-99 85-99zM99-20c44 1 53-31 53-75 0-43-8-75-51-75s-53 32-53 75 10 74 51 75" id="aX"/><path fill="#333" d="M177-190C167-65 218 103 67 71c-23-6-38-20-44-43l32-5c15 47 100 32 89-28v-30C133-14 115 1 83 1 29 1 15-40 15-95c0-56 16-97 71-98 29-1 48 16 59 35 1-10 0-23 2-32h30zM94-22c36 0 50-32 50-73 0-42-14-75-50-75-39 0-46 34-46 75s6 73 46 73" id="aY"/><g id="k"><use transform="matrix(0.05,0,0,0.05,0,0)" xlink:href="#aW"/><use transform="matrix(0.05,0,0,0.05,10,0)" xlink:href="#aX"/><use transform="matrix(0.05,0,0,0.05,20,0)" xlink:href="#aY"/><use transform="matrix(0.05,0,0,0.05,30,0)" xlink:href="#aO"/><use transform="matrix(0.05,0,0,0.05,33.95,0)" xlink:href="#aR"/></g><path fill="#333" d="M30 0v-248h187v28H63v79h144v27H63v87h162V0H30" id="aZ"/><path fill="#333" d="M179-190L93 31C79 59 56 82 12 73V49c39 6 53-20 64-50L1-190h34L92-34l54-156h33" id="ba"/><path fill="#333" d="M115-194c55 1 70 41 70 98S169 2 115 4C84 4 66-9 55-30l1 105H24l-1-265h31l2 30c10-21 28-34 59-34zm-8 174c40 0 45-34 45-75s-6-73-45-74c-42 0-51 32-51 76 0 43 10 73 51 73" id="bb"/><g id="l"><use transform="matrix(0.05,0,0,0.05,0,0)" xlink:href="#aZ"/><use transform="matrix(0.05,0,0,0.05,12,0)" xlink:href="#aR"/><use transform="matrix(0.05,0,0,0.05,22,0)" xlink:href="#aL"/><use transform="matrix(0.05,0,0,0.05,31,0)" xlink:href="#aP"/><use transform="matrix(0.05,0,0,0.05,36.95,0)" xlink:href="#ba"/><use transform="matrix(0.05,0,0,0.05,45.95,0)" xlink:href="#bb"/><use transform="matrix(0.05,0,0,0.05,55.95,0)" xlink:href="#aV"/></g><path fill="#333" d="M135-143c-3-34-86-38-87 0 15 53 115 12 119 90S17 21 10-45l28-5c4 36 97 45 98 0-10-56-113-15-118-90-4-57 82-63 122-42 12 7 21 19 24 35" id="bc"/><g id="m"><use transform="matrix(0.05,0,0,0.05,0,0)" xlink:href="#bb"/><use transform="matrix(0.05,0,0,0.05,10,0)" xlink:href="#aU"/><use transform="matrix(0.05,0,0,0.05,20,0)" xlink:href="#bc"/><use transform="matrix(0.05,0,0,0.05,29,0)" xlink:href="#bc"/><use transform="matrix(0.05,0,0,0.05,38,0)" xlink:href="#aS"/><use transform="matrix(0.05,0,0,0.05,50.95,0)" xlink:href="#aX"/><use transform="matrix(0.05,0,0,0.05,60.95,0)" xlink:href="#aP"/><use transform="matrix(0.05,0,0,0.05,66.9,0)" xlink:href="#aT"/><use transform="matrix(0.05,0,0,0.05,76.9,0)" xlink:href="#bc"/></g><path fill="#333" d="M106-169C34-169 62-67 57 0H25v-261h32l-1 103c12-21 28-36 61-36 89 0 53 116 60 194h-32v-121c2-32-8-49-39-48" id="bd"/><g id="n"><use transform="matrix(0.05,0,0,0.05,0,0)" xlink:href="#aS"/><use transform="matrix(0.05,0,0,0.05,12.950000000000001,0)" xlink:href="#aO"/><use transform="matrix(0.05,0,0,0.05,16.900000000000002,0)" xlink:href="#aV"/><use transform="matrix(0.05,0,0,0.05,21.900000000000002,0)" xlink:href="#bd"/></g><path fill="#333" d="M185-189c-5-48-123-54-124 2 14 75 158 14 163 119 3 78-121 87-175 55-17-10-28-26-33-46l33-7c5 56 141 63 141-1 0-78-155-14-162-118-5-82 145-84 179-34 5 7 8 16 11 25" id="be"/><path fill="#333" d="M194 0L95-120 63-95V0H30v-248h33v124l119-124h40L117-140 236 0h-42" id="bf"/><g id="o"><use transform="matrix(0.05,0,0,0.05,0,0)" xlink:href="#be"/><use transform="matrix(0.05,0,0,0.05,12,0)" xlink:href="#aQ"/><use transform="matrix(0.05,0,0,0.05,22,0)" xlink:href="#bc"/><use transform="matrix(0.05,0,0,0.05,31,0)" xlink:href="#bc"/><use transform="matrix(0.05,0,0,0.05,40,0)" xlink:href="#aO"/><use transform="matrix(0.05,0,0,0.05,43.95,0)" xlink:href="#aX"/><use transform="matrix(0.05,0,0,0.05,53.95,0)" xlink:href="#aR"/><use transform="matrix(0.05,0,0,0.05,63.95,0)" xlink:href="#bf"/><use transform="matrix(0.05,0,0,0.05,75.95,0)" xlink:href="#aQ"/><use transform="matrix(0.05,0,0,0.05,85.95,0)" xlink:href="#ba"/></g><path fill="#333" d="M212-179c-10-28-35-45-73-45-59 0-87 40-87 99 0 60 29 101 89 101 43 0 62-24 78-52l27 14C228-24 195 4 139 4 59 4 22-46 18-125c-6-104 99-153 187-111 19 9 31 26 39 46" id="bg"/><path fill="#333" d="M24 0v-261h32V0H24" id="bh"/><g id="p"><use transform="matrix(0.05,0,0,0.05,0,0)" xlink:href="#aL"/><use transform="matrix(0.05,0,0,0.05,9,0)" xlink:href="#bd"/><use transform="matrix(0.05,0,0,0.05,19,0)" xlink:href="#aU"/><use transform="matrix(0.05,0,0,0.05,29,0)" xlink:href="#aR"/><use transform="matrix(0.05,0,0,0.05,39,0)" xlink:href="#aY"/><use transform="matrix(0.05,0,0,0.05,49,0)" xlink:href="#aQ"/><use transform="matrix(0.05,0,0,0.05,59,0)" xlink:href="#bg"/><use transform="matrix(0.05,0,0,0.05,71.95,0)" xlink:href="#aP"/><use transform="matrix(0.05,0,0,0.05,77.9,0)" xlink:href="#aQ"/><use transform="matrix(0.05,0,0,0.05,87.9,0)" xlink:href="#aT"/><use transform="matrix(0.05,0,0,0.05,97.9,0)" xlink:href="#aQ"/><use transform="matrix(0.05,0,0,0.05,107.9,0)" xlink:href="#aR"/><use transform="matrix(0.05,0,0,0.05,117.9,0)" xlink:href="#aV"/><use transform="matrix(0.05,0,0,0.05,122.9,0)" xlink:href="#aO"/><use transform="matrix(0.05,0,0,0.05,126.85000000000001,0)" xlink:href="#aU"/><use transform="matrix(0.05,0,0,0.05,136.85000000000002,0)" xlink:href="#bh"/><use transform="matrix(0.05,0,0,0.05,140.8,0)" xlink:href="#bc"/></g><path fill="#333" d="M87 75C49 33 22-17 22-94c0-76 28-126 65-167h31c-38 41-64 92-64 168S80 34 118 75H87" id="bi"/><path fill="#333" d="M68-38c1 34 0 65-14 84H32c9-13 17-26 17-46H33v-38h35" id="bj"/><g id="q"><use transform="matrix(0.05,0,0,0.05,0,0)" xlink:href="#bi"/><use transform="matrix(0.05,0,0,0.05,5.95,0)" xlink:href="#aO"/><use transform="matrix(0.05,0,0,0.05,9.9,0)" xlink:href="#aT"/><use transform="matrix(0.05,0,0,0.05,19.9,0)" xlink:href="#bj"/></g><g id="r"><use transform="matrix(0.05,0,0,0.05,0,0)" xlink:href="#aX"/><use transform="matrix(0.05,0,0,0.05,10,0)" xlink:href="#bh"/><use transform="matrix(0.05,0,0,0.05,13.949999999999998,0)" xlink:href="#aT"/><use transform="matrix(0.05,0,0,0.05,23.95,0)" xlink:href="#bg"/><use transform="matrix(0.05,0,0,0.05,36.9,0)" xlink:href="#aP"/><use transform="matrix(0.05,0,0,0.05,42.85,0)" xlink:href="#aQ"/><use transform="matrix(0.05,0,0,0.05,52.85,0)" xlink:href="#aT"/><use transform="matrix(0.05,0,0,0.05,62.85,0)" xlink:href="#aQ"/><use transform="matrix(0.05,0,0,0.05,72.85,0)" xlink:href="#aR"/><use transform="matrix(0.05,0,0,0.05,82.85,0)" xlink:href="#aV"/><use transform="matrix(0.05,0,0,0.05,87.85,0)" xlink:href="#aO"/><use transform="matrix(0.05,0,0,0.05,91.8,0)" xlink:href="#aU"/><use transform="matrix(0.05,0,0,0.05,101.8,0)" xlink:href="#bh"/><use transform="matrix(0.05,0,0,0.05,105.75,0)" xlink:href="#bc"/><use transform="matrix(0.05,0,0,0.05,114.75,0)" xlink:href="#bj"/></g><g id="s"><use transform="matrix(0.05,0,0,0.05,0,0)" xlink:href="#aR"/><use transform="matrix(0.05,0,0,0.05,10,0)" xlink:href="#aQ"/><use transform="matrix(0.05,0,0,0.05,20,0)" xlink:href="#aS"/><use transform="matrix(0.05,0,0,0.05,32.95,0)" xlink:href="#bg"/><use transform="matrix(0.05,0,0,0.05,45.900000000000006,0)" xlink:href="#aP"/><use transform="matrix(0.05,0,0,0.05,51.85,0)" xlink:href="#aQ"/><use transform="matrix(0.05,0,0,0.05,61.85,0)" xlink:href="#aT"/><use transform="matrix(0.05,0,0,0.05,71.85000000000001,0)" xlink:href="#aQ"/><use transform="matrix(0.05,0,0,0.05,81.85000000000001,0)" xlink:href="#aR"/><use transform="matrix(0.05,0,0,0.05,91.85000000000001,0)" xlink:href="#aV"/><use transform="matrix(0.05,0,0,0.05,96.85000000000001,0)" xlink:href="#aO"/><use transform="matrix(0.05,0,0,0.05,100.80000000000001,0)" xlink:href="#aU"/><use transform="matrix(0.05,0,0,0.05,110.80000000000001,0)" xlink:href="#bh"/><use transform="matrix(0.05,0,0,0.05,114.75,0)" xlink:href="#bc"/><use transform="matrix(0.05,0,0,0.05,123.75,0)" xlink:href="#bj"/></g><path fill="#333" d="M210-169c-67 3-38 105-44 169h-31v-121c0-29-5-50-35-48C34-165 62-65 56 0H25l-1-190h30c1 10-1 24 2 32 10-44 99-50 107 0 11-21 27-35 58-36 85-2 47 119 55 194h-31v-121c0-29-5-49-35-48" id="bk"/><path fill="#333" d="M63-220v92h138v28H63V0H30v-248h175v28H63" id="bl"/><path fill="#333" d="M33-261c38 41 65 92 65 168S71 34 33 75H2C39 34 66-17 66-93S39-220 2-261h31" id="bm"/><g id="t"><use transform="matrix(0.05,0,0,0.05,0,0)" xlink:href="#aU"/><use transform="matrix(0.05,0,0,0.05,10,0)" xlink:href="#aT"/><use transform="matrix(0.05,0,0,0.05,20,0)" xlink:href="#bk"/><use transform="matrix(0.05,0,0,0.05,34.95,0)" xlink:href="#aO"/><use transform="matrix(0.05,0,0,0.05,38.900000000000006,0)" xlink:href="#aR"/><use transform="matrix(0.05,0,0,0.05,48.900000000000006,0)" xlink:href="#bl"/><use transform="matrix(0.05,0,0,0.05,59.85,0)" xlink:href="#bh"/><use transform="matrix(0.05,0,0,0.05,63.80000000000001,0)" xlink:href="#aU"/><use transform="matrix(0.05,0,0,0.05,73.80000000000001,0)" xlink:href="#aY"/><use transform="matrix(0.05,0,0,0.05,83.80000000000001,0)" xlink:href="#bm"/></g><g id="v"><use transform="matrix(0.05,0,0,0.05,0,0)" xlink:href="#bi"/><use transform="matrix(0.05,0,0,0.05,5.95,0)" xlink:href="#bh"/><use transform="matrix(0.05,0,0,0.05,9.9,0)" xlink:href="#aX"/><use transform="matrix(0.05,0,0,0.05,19.9,0)" xlink:href="#aY"/><use transform="matrix(0.05,0,0,0.05,29.899999999999995,0)" xlink:href="#aO"/><use transform="matrix(0.05,0,0,0.05,33.85,0)" xlink:href="#aR"/><use transform="matrix(0.05,0,0,0.05,43.85,0)" xlink:href="#bg"/><use transform="matrix(0.05,0,0,0.05,56.800000000000004,0)" xlink:href="#aP"/><use transform="matrix(0.05,0,0,0.05,62.75,0)" xlink:href="#aQ"/><use transform="matrix(0.05,0,0,0.05,72.75,0)" xlink:href="#aT"/><use transform="matrix(0.05,0,0,0.05,82.75,0)" xlink:href="#aQ"/><use transform="matrix(0.05,0,0,0.05,92.75,0)" xlink:href="#aR"/><use transform="matrix(0.05,0,0,0.05,102.75,0)" xlink:href="#aV"/><use transform="matrix(0.05,0,0,0.05,107.75,0)" xlink:href="#aO"/><use transform="matrix(0.05,0,0,0.05,111.7,0)" xlink:href="#aU"/><use transform="matrix(0.05,0,0,0.05,121.7,0)" xlink:href="#bh"/><use transform="matrix(0.05,0,0,0.05,125.65,0)" xlink:href="#bc"/><use transform="matrix(0.05,0,0,0.05,134.65,0)" xlink:href="#bg"/><use transform="matrix(0.05,0,0,0.05,147.6,0)" xlink:href="#bd"/><use transform="matrix(0.05,0,0,0.05,157.6,0)" xlink:href="#aU"/><use transform="matrix(0.05,0,0,0.05,167.6,0)" xlink:href="#aR"/><use transform="matrix(0.05,0,0,0.05,177.6,0)" xlink:href="#aY"/><use transform="matrix(0.05,0,0,0.05,187.6,0)" xlink:href="#aQ"/><use transform="matrix(0.05,0,0,0.05,197.6,0)" xlink:href="#bm"/></g><path fill="#333" d="M137 0h-34L2-248h35l83 218 83-218h36" id="bn"/><path fill="#333" d="M101-234c-31-9-42 10-38 44h38v23H63V0H32v-167H5v-23h27c-7-52 17-82 69-68v24" id="bo"/><g id="w"><use transform="matrix(0.05,0,0,0.05,0,0)" xlink:href="#bn"/><use transform="matrix(0.05,0,0,0.05,11,0)" xlink:href="#aQ"/><use transform="matrix(0.05,0,0,0.05,21,0)" xlink:href="#aP"/><use transform="matrix(0.05,0,0,0.05,26.950000000000003,0)" xlink:href="#aO"/><use transform="matrix(0.05,0,0,0.05,30.899999999999995,0)" xlink:href="#bo"/><use transform="matrix(0.05,0,0,0.05,35.9,0)" xlink:href="#ba"/></g><g id="x"><use transform="matrix(0.05,0,0,0.05,0,0)" xlink:href="#aO"/><use transform="matrix(0.05,0,0,0.05,3.95,0)" xlink:href="#aT"/></g><g id="y"><use transform="matrix(0.05,0,0,0.05,0,0)" xlink:href="#bh"/><use transform="matrix(0.05,0,0,0.05,3.95,0)" xlink:href="#aX"/><use transform="matrix(0.05,0,0,0.05,13.949999999999998,0)" xlink:href="#aY"/><use transform="matrix(0.05,0,0,0.05,23.95,0)" xlink:href="#aO"/><use transform="matrix(0.05,0,0,0.05,27.899999999999995,0)" xlink:href="#aR"/></g><g id="z"><use transform="matrix(0.05,0,0,0.05,0,0)" xlink:href="#aX"/><use transform="matrix(0.05,0,0,0.05,10,0)" xlink:href="#bh"/><use transform="matrix(0.05,0,0,0.05,13.949999999999998,0)" xlink:href="#aT"/></g><g id="A"><use transform="matrix(0.05,0,0,0.05,0,0)" xlink:href="#aL"/><use transform="matrix(0.05,0,0,0.05,9,0)" xlink:href="#aP"/><use transform="matrix(0.05,0,0,0.05,14.949999999999998,0)" xlink:href="#aQ"/><use transform="matrix(0.05,0,0,0.05,24.95,0)" xlink:href="#aT"/><use transform="matrix(0.05,0,0,0.05,34.95,0)" xlink:href="#aQ"/><use transform="matrix(0.05,0,0,0.05,44.95,0)" xlink:href="#aR"/><use transform="matrix(0.05,0,0,0.05,54.95,0)" xlink:href="#aV"/><use transform="matrix(0.05,0,0,0.05,59.95,0)" xlink:href="#aO"/><use transform="matrix(0.05,0,0,0.05,63.900000000000006,0)" xlink:href="#aU"/><use transform="matrix(0.05,0,0,0.05,73.9,0)" xlink:href="#bh"/><use transform="matrix(0.05,0,0,0.05,77.85000000000001,0)" xlink:href="#bc"/></g><path fill="#333" d="M232-93c-1 65-40 97-104 97C67 4 28-28 28-90v-158h33c8 89-33 224 67 224 102 0 64-133 71-224h33v155" id="bp"/><g id="B"><use transform="matrix(0.05,0,0,0.05,0,0)" xlink:href="#bp"/><use transform="matrix(0.05,0,0,0.05,12.950000000000001,0)" xlink:href="#bb"/><use transform="matrix(0.05,0,0,0.05,22.950000000000003,0)" xlink:href="#aT"/><use transform="matrix(0.05,0,0,0.05,32.95,0)" xlink:href="#aU"/><use transform="matrix(0.05,0,0,0.05,42.95,0)" xlink:href="#aV"/><use transform="matrix(0.05,0,0,0.05,47.95,0)" xlink:href="#aQ"/></g><path fill="#333" d="M233-177c-1 41-23 64-60 70L243 0h-38l-65-103H63V0H30v-248c88 3 205-21 203 71zM63-129c60-2 137 13 137-47 0-61-80-42-137-45v92" id="bq"/><g id="C"><use transform="matrix(0.05,0,0,0.05,0,0)" xlink:href="#bq"/><use transform="matrix(0.05,0,0,0.05,12.950000000000001,0)" xlink:href="#aQ"/><use transform="matrix(0.05,0,0,0.05,22.950000000000003,0)" xlink:href="#aV"/><use transform="matrix(0.05,0,0,0.05,27.950000000000003,0)" xlink:href="#aN"/><use transform="matrix(0.05,0,0,0.05,37.95,0)" xlink:href="#aP"/><use transform="matrix(0.05,0,0,0.05,43.900000000000006,0)" xlink:href="#aR"/></g><g id="D"><use transform="matrix(0.05,0,0,0.05,0,0)" xlink:href="#aN"/><use transform="matrix(0.05,0,0,0.05,10,0)" xlink:href="#bb"/><use transform="matrix(0.05,0,0,0.05,20,0)" xlink:href="#aT"/><use transform="matrix(0.05,0,0,0.05,30,0)" xlink:href="#aU"/><use transform="matrix(0.05,0,0,0.05,40,0)" xlink:href="#aV"/><use transform="matrix(0.05,0,0,0.05,45,0)" xlink:href="#aQ"/><use transform="matrix(0.05,0,0,0.05,55,0)" xlink:href="#aT"/></g><path fill="#333" d="M127-220V0H93v-220H8v-28h204v28h-85" id="br"/><path fill="#333" d="M143 0L79-87 56-68V0H24v-261h32v163l83-92h37l-77 82L181 0h-38" id="bs"/><g id="E"><use transform="matrix(0.05,0,0,0.05,0,0)" xlink:href="#br"/><use transform="matrix(0.05,0,0,0.05,10.3,0)" xlink:href="#aO"/><use transform="matrix(0.05,0,0,0.05,14.25,0)" xlink:href="#aL"/><use transform="matrix(0.05,0,0,0.05,23.25,0)" xlink:href="#bs"/><use transform="matrix(0.05,0,0,0.05,32.25,0)" xlink:href="#aQ"/><use transform="matrix(0.05,0,0,0.05,42.25,0)" xlink:href="#aV"/></g><g id="F"><use transform="matrix(0.05,0,0,0.05,0,0)" xlink:href="#bp"/><use transform="matrix(0.05,0,0,0.05,12.950000000000001,0)" xlink:href="#bc"/><use transform="matrix(0.05,0,0,0.05,21.950000000000003,0)" xlink:href="#aQ"/><use transform="matrix(0.05,0,0,0.05,31.950000000000003,0)" xlink:href="#aP"/></g><path fill="#333" d="M115-194c53 0 69 39 70 98 0 66-23 100-70 100C84 3 66-7 56-30L54 0H23l1-261h32v101c10-23 28-34 59-34zm-8 174c40 0 45-34 45-75 0-40-5-75-45-74-42 0-51 32-51 76 0 43 10 73 51 73" id="bt"/><g id="G"><use transform="matrix(0.05,0,0,0.05,0,0)" xlink:href="#bl"/><use transform="matrix(0.05,0,0,0.05,10.950000000000001,0)" xlink:href="#aQ"/><use transform="matrix(0.05,0,0,0.05,20.950000000000003,0)" xlink:href="#aQ"/><use transform="matrix(0.05,0,0,0.05,30.950000000000003,0)" xlink:href="#aT"/><use transform="matrix(0.05,0,0,0.05,40.95,0)" xlink:href="#bt"/><use transform="matrix(0.05,0,0,0.05,50.95,0)" xlink:href="#aU"/><use transform="matrix(0.05,0,0,0.05,60.95,0)" xlink:href="#aL"/><use transform="matrix(0.05,0,0,0.05,69.95,0)" xlink:href="#bs"/></g><path fill="#333" d="M33-154v-36h34v36H33zM33 0v-36h34V0H33" id="bu"/><g id="H"><use transform="matrix(0.05,0,0,0.05,0,0)" xlink:href="#bc"/><use transform="matrix(0.05,0,0,0.05,9,0)" xlink:href="#aV"/><use transform="matrix(0.05,0,0,0.05,14,0)" xlink:href="#aU"/><use transform="matrix(0.05,0,0,0.05,24,0)" xlink:href="#aV"/><use transform="matrix(0.05,0,0,0.05,29,0)" xlink:href="#aQ"/><use transform="matrix(0.05,0,0,0.05,39,0)" xlink:href="#bu"/></g><path fill="#333" d="M0 4l72-265h28L28 4H0" id="bv"/><g id="I"><use transform="matrix(0.05,0,0,0.05,0,0)" xlink:href="#bc"/><use transform="matrix(0.05,0,0,0.05,9,0)" xlink:href="#aN"/><use transform="matrix(0.05,0,0,0.05,19,0)" xlink:href="#aL"/><use transform="matrix(0.05,0,0,0.05,28,0)" xlink:href="#aL"/><use transform="matrix(0.05,0,0,0.05,37,0)" xlink:href="#aQ"/><use transform="matrix(0.05,0,0,0.05,47,0)" xlink:href="#bc"/><use transform="matrix(0.05,0,0,0.05,56,0)" xlink:href="#bc"/><use transform="matrix(0.05,0,0,0.05,65,0)" xlink:href="#bv"/><use transform="matrix(0.05,0,0,0.05,70,0)" xlink:href="#bo"/><use transform="matrix(0.05,0,0,0.05,75,0)" xlink:href="#aU"/><use transform="matrix(0.05,0,0,0.05,85,0)" xlink:href="#aO"/><use transform="matrix(0.05,0,0,0.05,88.95,0)" xlink:href="#bh"/></g><path fill="#333" d="M33 0v-248h34V0H33" id="bw"/><g id="J"><use transform="matrix(0.05,0,0,0.05,0,0)" xlink:href="#bw"/><use transform="matrix(0.05,0,0,0.05,5,0)" xlink:href="#bo"/></g><g id="K"><use transform="matrix(0.05,0,0,0.05,0,0)" xlink:href="#aV"/><use transform="matrix(0.05,0,0,0.05,5,0)" xlink:href="#bd"/><use transform="matrix(0.05,0,0,0.05,15,0)" xlink:href="#aQ"/></g><g id="L"><use transform="matrix(0.05,0,0,0.05,0,0)" xlink:href="#aL"/><use transform="matrix(0.05,0,0,0.05,9,0)" xlink:href="#aN"/><use transform="matrix(0.05,0,0,0.05,19,0)" xlink:href="#aP"/><use transform="matrix(0.05,0,0,0.05,24.95,0)" xlink:href="#aP"/><use transform="matrix(0.05,0,0,0.05,30.899999999999995,0)" xlink:href="#aQ"/><use transform="matrix(0.05,0,0,0.05,40.9,0)" xlink:href="#aR"/><use transform="matrix(0.05,0,0,0.05,50.9,0)" xlink:href="#aV"/></g><g id="M"><use transform="matrix(0.05,0,0,0.05,0,0)" xlink:href="#aN"/><use transform="matrix(0.05,0,0,0.05,10,0)" xlink:href="#bc"/><use transform="matrix(0.05,0,0,0.05,19,0)" xlink:href="#aQ"/><use transform="matrix(0.05,0,0,0.05,29,0)" xlink:href="#aP"/></g><g id="N"><use transform="matrix(0.05,0,0,0.05,0,0)" xlink:href="#aO"/><use transform="matrix(0.05,0,0,0.05,3.95,0)" xlink:href="#bc"/></g><g id="O"><use transform="matrix(0.05,0,0,0.05,0,0)" xlink:href="#aU"/><use transform="matrix(0.05,0,0,0.05,10,0)" xlink:href="#aR"/></g><g id="P"><use transform="matrix(0.05,0,0,0.05,0,0)" xlink:href="#aU"/><use transform="matrix(0.05,0,0,0.05,10,0)" xlink:href="#aT"/><use transform="matrix(0.05,0,0,0.05,20,0)" xlink:href="#bk"/><use transform="matrix(0.05,0,0,0.05,34.95,0)" xlink:href="#aO"/><use transform="matrix(0.05,0,0,0.05,38.900000000000006,0)" xlink:href="#aR"/></g><g id="Q"><use transform="matrix(0.05,0,0,0.05,0,0)" xlink:href="#bd"/><use transform="matrix(0.05,0,0,0.05,10,0)" xlink:href="#aQ"/></g><g id="R"><use transform="matrix(0.05,0,0,0.05,0,0)" xlink:href="#bk"/><use transform="matrix(0.05,0,0,0.05,14.950000000000001,0)" xlink:href="#aU"/><use transform="matrix(0.05,0,0,0.05,24.950000000000003,0)" xlink:href="#ba"/></g><g id="S"><use transform="matrix(0.05,0,0,0.05,0,0)" xlink:href="#aL"/><use transform="matrix(0.05,0,0,0.05,9,0)" xlink:href="#bd"/><use transform="matrix(0.05,0,0,0.05,19,0)" xlink:href="#aU"/><use transform="matrix(0.05,0,0,0.05,29,0)" xlink:href="#aR"/><use transform="matrix(0.05,0,0,0.05,39,0)" xlink:href="#aY"/><use transform="matrix(0.05,0,0,0.05,49,0)" xlink:href="#aQ"/></g><g id="T"><use transform="matrix(0.05,0,0,0.05,0,0)" xlink:href="#aU"/><use transform="matrix(0.05,0,0,0.05,10,0)" xlink:href="#aR"/><use transform="matrix(0.05,0,0,0.05,20,0)" xlink:href="#aX"/><use transform="matrix(0.05,0,0,0.05,30,0)" xlink:href="#aV"/><use transform="matrix(0.05,0,0,0.05,35,0)" xlink:href="#bd"/><use transform="matrix(0.05,0,0,0.05,45,0)" xlink:href="#aQ"/><use transform="matrix(0.05,0,0,0.05,55,0)" xlink:href="#aP"/></g><g id="U"><use transform="matrix(0.05,0,0,0.05,0,0)" xlink:href="#aN"/><use transform="matrix(0.05,0,0,0.05,10,0)" xlink:href="#bc"/><use transform="matrix(0.05,0,0,0.05,19,0)" xlink:href="#aQ"/><use transform="matrix(0.05,0,0,0.05,29,0)" xlink:href="#aP"/><use transform="matrix(0.05,0,0,0.05,34.95,0)" xlink:href="#bc"/></g><path fill="#333" d="M33 0v-38h34V0H33" id="bx"/><g id="V"><use transform="matrix(0.05,0,0,0.05,0,0)" xlink:href="#aL"/><use transform="matrix(0.05,0,0,0.05,9,0)" xlink:href="#aP"/><use transform="matrix(0.05,0,0,0.05,14.949999999999998,0)" xlink:href="#aQ"/><use transform="matrix(0.05,0,0,0.05,24.95,0)" xlink:href="#aT"/><use transform="matrix(0.05,0,0,0.05,34.95,0)" xlink:href="#aQ"/><use transform="matrix(0.05,0,0,0.05,44.95,0)" xlink:href="#aR"/><use transform="matrix(0.05,0,0,0.05,54.95,0)" xlink:href="#aV"/><use transform="matrix(0.05,0,0,0.05,59.95,0)" xlink:href="#aO"/><use transform="matrix(0.05,0,0,0.05,63.900000000000006,0)" xlink:href="#aU"/><use transform="matrix(0.05,0,0,0.05,73.9,0)" xlink:href="#bh"/><use transform="matrix(0.05,0,0,0.05,77.85000000000001,0)" xlink:href="#bc"/><use transform="matrix(0.05,0,0,0.05,86.85000000000001,0)" xlink:href="#bx"/></g><g id="W"><use transform="matrix(0.05,0,0,0.05,0,0)" xlink:href="#br"/><use transform="matrix(0.05,0,0,0.05,10.950000000000001,0)" xlink:href="#bd"/><use transform="matrix(0.05,0,0,0.05,20.950000000000003,0)" xlink:href="#aQ"/><use transform="matrix(0.05,0,0,0.05,30.950000000000003,0)" xlink:href="#aR"/></g><g id="X"><use transform="matrix(0.05,0,0,0.05,0,0)" xlink:href="#aX"/><use transform="matrix(0.05,0,0,0.05,10,0)" xlink:href="#aR"/><use transform="matrix(0.05,0,0,0.05,20,0)" xlink:href="#bh"/><use transform="matrix(0.05,0,0,0.05,23.95,0)" xlink:href="#ba"/></g><g id="Y"><use transform="matrix(0.05,0,0,0.05,0,0)" xlink:href="#bd"/><use transform="matrix(0.05,0,0,0.05,10,0)" xlink:href="#aU"/><use transform="matrix(0.05,0,0,0.05,20,0)" xlink:href="#bc"/></g><g id="Z"><use transform="matrix(0.05,0,0,0.05,0,0)" xlink:href="#aV"/><use transform="matrix(0.05,0,0,0.05,5,0)" xlink:href="#aX"/></g><g id="aa"><use transform="matrix(0.05,0,0,0.05,0,0)" xlink:href="#bc"/><use transform="matrix(0.05,0,0,0.05,9,0)" xlink:href="#aQ"/><use transform="matrix(0.05,0,0,0.05,19,0)" xlink:href="#aV"/></g><g id="ab"><use transform="matrix(0.05,0,0,0.05,0,0)" xlink:href="#aV"/><use transform="matrix(0.05,0,0,0.05,5,0)" xlink:href="#bd"/><use transform="matrix(0.05,0,0,0.05,15,0)" xlink:href="#aQ"/></g><g id="ac"><use transform="matrix(0.05,0,0,0.05,0,0)" xlink:href="#aR"/><use transform="matrix(0.05,0,0,0.05,10,0)" xlink:href="#aQ"/><use transform="matrix(0.05,0,0,0.05,20,0)" xlink:href="#aS"/><use transform="matrix(0.05,0,0,0.05,32.95,0)" xlink:href="#bg"/><use transform="matrix(0.05,0,0,0.05,45.900000000000006,0)" xlink:href="#aP"/><use transform="matrix(0.05,0,0,0.05,51.85,0)" xlink:href="#aQ"/><use transform="matrix(0.05,0,0,0.05,61.85,0)" xlink:href="#aT"/><use transform="matrix(0.05,0,0,0.05,71.85000000000001,0)" xlink:href="#aQ"/><use transform="matrix(0.05,0,0,0.05,81.85000000000001,0)" xlink:href="#aR"/><use transform="matrix(0.05,0,0,0.05,91.85000000000001,0)" xlink:href="#aV"/><use transform="matrix(0.05,0,0,0.05,96.85000000000001,0)" xlink:href="#aO"/><use transform="matrix(0.05,0,0,0.05,100.80000000000001,0)" xlink:href="#aU"/><use transform="matrix(0.05,0,0,0.05,110.80000000000001,0)" xlink:href="#bh"/><use transform="matrix(0.05,0,0,0.05,114.75,0)" xlink:href="#bc"/></g><g id="ad"><use transform="matrix(0.05,0,0,0.05,0,0)" xlink:href="#aU"/><use transform="matrix(0.05,0,0,0.05,10,0)" xlink:href="#aR"/><use transform="matrix(0.05,0,0,0.05,20,0)" xlink:href="#aT"/></g><g id="ae"><use transform="matrix(0.05,0,0,0.05,0,0)" xlink:href="#aX"/><use transform="matrix(0.05,0,0,0.05,10,0)" xlink:href="#aP"/></g><g id="af"><use transform="matrix(0.05,0,0,0.05,0,0)" xlink:href="#aV"/><use transform="matrix(0.05,0,0,0.05,5,0)" xlink:href="#bd"/><use transform="matrix(0.05,0,0,0.05,15,0)" xlink:href="#aQ"/></g><g id="ag"><use transform="matrix(0.05,0,0,0.05,0,0)" xlink:href="#aU"/><use transform="matrix(0.05,0,0,0.05,10,0)" xlink:href="#aT"/><use transform="matrix(0.05,0,0,0.05,20,0)" xlink:href="#bk"/><use transform="matrix(0.05,0,0,0.05,34.95,0)" xlink:href="#aO"/><use transform="matrix(0.05,0,0,0.05,38.900000000000006,0)" xlink:href="#aR"/><use transform="matrix(0.05,0,0,0.05,48.900000000000006,0)" xlink:href="#bl"/><use transform="matrix(0.05,0,0,0.05,59.85,0)" xlink:href="#bh"/><use transform="matrix(0.05,0,0,0.05,63.80000000000001,0)" xlink:href="#aU"/><use transform="matrix(0.05,0,0,0.05,73.80000000000001,0)" xlink:href="#aY"/><use transform="matrix(0.05,0,0,0.05,83.80000000000001,0)" xlink:href="#bx"/></g><g id="ah"><use transform="matrix(0.05,0,0,0.05,0,0)" xlink:href="#bg"/><use transform="matrix(0.05,0,0,0.05,12.950000000000001,0)" xlink:href="#bd"/><use transform="matrix(0.05,0,0,0.05,22.950000000000003,0)" xlink:href="#aQ"/><use transform="matrix(0.05,0,0,0.05,32.95,0)" xlink:href="#aL"/><use transform="matrix(0.05,0,0,0.05,41.95,0)" xlink:href="#bs"/></g><g id="ai"><use transform="matrix(0.05,0,0,0.05,0,0)" xlink:href="#aO"/><use transform="matrix(0.05,0,0,0.05,3.95,0)" xlink:href="#bo"/></g><g id="aj"><use transform="matrix(0.05,0,0,0.05,0,0)" xlink:href="#aU"/><use transform="matrix(0.05,0,0,0.05,10,0)" xlink:href="#aT"/><use transform="matrix(0.05,0,0,0.05,20,0)" xlink:href="#bk"/><use transform="matrix(0.05,0,0,0.05,34.95,0)" xlink:href="#aO"/><use transform="matrix(0.05,0,0,0.05,38.900000000000006,0)" xlink:href="#aR"/></g><path fill="#333" d="M140-251c81 0 123 46 123 126C263-46 219 4 140 4 59 4 17-45 17-125s42-126 123-126zm0 227c63 0 89-41 89-101s-29-99-89-99c-61 0-89 39-89 99S79-25 140-24" id="by"/><g id="ak"><use transform="matrix(0.05,0,0,0.05,0,0)" xlink:href="#by"/><use transform="matrix(0.05,0,0,0.05,14,0)" xlink:href="#bh"/><use transform="matrix(0.05,0,0,0.05,17.95,0)" xlink:href="#aT"/></g><g id="al"><use transform="matrix(0.05,0,0,0.05,0,0)" xlink:href="#aL"/><use transform="matrix(0.05,0,0,0.05,9,0)" xlink:href="#aP"/><use transform="matrix(0.05,0,0,0.05,14.949999999999998,0)" xlink:href="#aQ"/><use transform="matrix(0.05,0,0,0.05,24.95,0)" xlink:href="#aT"/><use transform="matrix(0.05,0,0,0.05,34.95,0)" xlink:href="#aQ"/><use transform="matrix(0.05,0,0,0.05,44.95,0)" xlink:href="#aR"/><use transform="matrix(0.05,0,0,0.05,54.95,0)" xlink:href="#aV"/><use transform="matrix(0.05,0,0,0.05,59.95,0)" xlink:href="#aO"/><use transform="matrix(0.05,0,0,0.05,63.900000000000006,0)" xlink:href="#aU"/><use transform="matrix(0.05,0,0,0.05,73.9,0)" xlink:href="#bh"/><use transform="matrix(0.05,0,0,0.05,77.85000000000001,0)" xlink:href="#bc"/></g><g id="am"><use transform="matrix(0.05,0,0,0.05,0,0)" xlink:href="#aO"/><use transform="matrix(0.05,0,0,0.05,3.95,0)" xlink:href="#aT"/></g><path fill="#333" d="M108 0H70L1-190h34L89-25l56-165h34" id="bz"/><g id="an"><use transform="matrix(0.05,0,0,0.05,0,0)" xlink:href="#bd"/><use transform="matrix(0.05,0,0,0.05,10,0)" xlink:href="#aU"/><use transform="matrix(0.05,0,0,0.05,20,0)" xlink:href="#bz"/><use transform="matrix(0.05,0,0,0.05,29,0)" xlink:href="#aQ"/></g><g id="ao"><use transform="matrix(0.05,0,0,0.05,0,0)" xlink:href="#aV"/><use transform="matrix(0.05,0,0,0.05,5,0)" xlink:href="#aX"/></g><g id="ap"><use transform="matrix(0.05,0,0,0.05,0,0)" xlink:href="#bt"/><use transform="matrix(0.05,0,0,0.05,10,0)" xlink:href="#aQ"/></g><g id="aq"><use transform="matrix(0.05,0,0,0.05,0,0)" xlink:href="#bz"/><use transform="matrix(0.05,0,0,0.05,9,0)" xlink:href="#aQ"/><use transform="matrix(0.05,0,0,0.05,19,0)" xlink:href="#aP"/><use transform="matrix(0.05,0,0,0.05,24.95,0)" xlink:href="#aO"/><use transform="matrix(0.05,0,0,0.05,28.899999999999995,0)" xlink:href="#bo"/><use transform="matrix(0.05,0,0,0.05,33.9,0)" xlink:href="#aO"/><use transform="matrix(0.05,0,0,0.05,37.85,0)" xlink:href="#aQ"/><use transform="matrix(0.05,0,0,0.05,47.85,0)" xlink:href="#aT"/></g><g id="ar"><use transform="matrix(0.05,0,0,0.05,0,0)" xlink:href="#aR"/><use transform="matrix(0.05,0,0,0.05,10,0)" xlink:href="#aX"/><use transform="matrix(0.05,0,0,0.05,20,0)" xlink:href="#aV"/></g><g id="as"><use transform="matrix(0.05,0,0,0.05,0,0)" xlink:href="#aU"/><use transform="matrix(0.05,0,0,0.05,10,0)" xlink:href="#aT"/><use transform="matrix(0.05,0,0,0.05,20,0)" xlink:href="#bk"/><use transform="matrix(0.05,0,0,0.05,34.95,0)" xlink:href="#aO"/><use transform="matrix(0.05,0,0,0.05,38.900000000000006,0)" xlink:href="#aR"/><use transform="matrix(0.05,0,0,0.05,48.900000000000006,0)" xlink:href="#bx"/></g></defs></g></svg>